<mxfile host="app.diagrams.net" modified="2023-09-29T15:21:32.139Z" agent="Mozilla/5.0 (Windows NT 10.0; Win64; x64) AppleWebKit/537.36 (KHTML, like Gecko) Chrome/117.0.0.0 Safari/537.36" etag="xnKNd9Xgt13VJv9U1b29" version="22.0.0" type="github">
  <diagram id="C5RBs43oDa-KdzZeNtuy" name="Page-1">
    <mxGraphModel dx="1235" dy="628" grid="1" gridSize="10" guides="1" tooltips="1" connect="1" arrows="1" fold="1" page="1" pageScale="1" pageWidth="827" pageHeight="1169" math="0" shadow="0">
      <root>
        <mxCell id="WIyWlLk6GJQsqaUBKTNV-0" />
        <mxCell id="WIyWlLk6GJQsqaUBKTNV-1" parent="WIyWlLk6GJQsqaUBKTNV-0" />
        <mxCell id="QANqejLoodHt5zhk6lb1-8" style="edgeStyle=orthogonalEdgeStyle;rounded=0;orthogonalLoop=1;jettySize=auto;html=1;exitX=0.5;exitY=1;exitDx=0;exitDy=0;entryX=0.5;entryY=0;entryDx=0;entryDy=0;" edge="1" parent="WIyWlLk6GJQsqaUBKTNV-1" source="QANqejLoodHt5zhk6lb1-0" target="QANqejLoodHt5zhk6lb1-2">
          <mxGeometry relative="1" as="geometry" />
        </mxCell>
        <mxCell id="QANqejLoodHt5zhk6lb1-0" value="START" style="rounded=1;whiteSpace=wrap;html=1;arcSize=50;" vertex="1" parent="WIyWlLk6GJQsqaUBKTNV-1">
          <mxGeometry x="120" y="40" width="120" height="40" as="geometry" />
        </mxCell>
        <mxCell id="QANqejLoodHt5zhk6lb1-1" value="END" style="rounded=1;whiteSpace=wrap;html=1;arcSize=50;" vertex="1" parent="WIyWlLk6GJQsqaUBKTNV-1">
          <mxGeometry x="120" y="1000" width="120" height="40" as="geometry" />
        </mxCell>
        <mxCell id="QANqejLoodHt5zhk6lb1-9" style="edgeStyle=orthogonalEdgeStyle;rounded=0;orthogonalLoop=1;jettySize=auto;html=1;exitX=0.5;exitY=1;exitDx=0;exitDy=0;entryX=0.5;entryY=0;entryDx=0;entryDy=0;" edge="1" parent="WIyWlLk6GJQsqaUBKTNV-1" source="QANqejLoodHt5zhk6lb1-2" target="QANqejLoodHt5zhk6lb1-3">
          <mxGeometry relative="1" as="geometry" />
        </mxCell>
        <mxCell id="QANqejLoodHt5zhk6lb1-2" value="float&amp;nbsp;lamaMenginap, hargaKamar, jmlBayar, total" style="shape=parallelogram;perimeter=parallelogramPerimeter;whiteSpace=wrap;html=1;fixedSize=1;" vertex="1" parent="WIyWlLk6GJQsqaUBKTNV-1">
          <mxGeometry x="90" y="160" width="180" height="80" as="geometry" />
        </mxCell>
        <mxCell id="QANqejLoodHt5zhk6lb1-10" style="edgeStyle=orthogonalEdgeStyle;rounded=0;orthogonalLoop=1;jettySize=auto;html=1;exitX=0.5;exitY=1;exitDx=0;exitDy=0;entryX=0.5;entryY=0;entryDx=0;entryDy=0;" edge="1" parent="WIyWlLk6GJQsqaUBKTNV-1" source="QANqejLoodHt5zhk6lb1-3" target="QANqejLoodHt5zhk6lb1-4">
          <mxGeometry relative="1" as="geometry" />
        </mxCell>
        <mxCell id="QANqejLoodHt5zhk6lb1-3" value="jmlBayar = lamaMenginap * hargaKamar" style="rounded=0;whiteSpace=wrap;html=1;" vertex="1" parent="WIyWlLk6GJQsqaUBKTNV-1">
          <mxGeometry x="95" y="320" width="170" height="80" as="geometry" />
        </mxCell>
        <mxCell id="QANqejLoodHt5zhk6lb1-11" style="edgeStyle=orthogonalEdgeStyle;rounded=0;orthogonalLoop=1;jettySize=auto;html=1;exitX=0.5;exitY=1;exitDx=0;exitDy=0;entryX=0.5;entryY=0;entryDx=0;entryDy=0;" edge="1" parent="WIyWlLk6GJQsqaUBKTNV-1" source="QANqejLoodHt5zhk6lb1-4" target="QANqejLoodHt5zhk6lb1-5">
          <mxGeometry relative="1" as="geometry" />
        </mxCell>
        <mxCell id="QANqejLoodHt5zhk6lb1-14" style="edgeStyle=orthogonalEdgeStyle;rounded=0;orthogonalLoop=1;jettySize=auto;html=1;exitX=1;exitY=0.5;exitDx=0;exitDy=0;entryX=0.5;entryY=0;entryDx=0;entryDy=0;" edge="1" parent="WIyWlLk6GJQsqaUBKTNV-1" source="QANqejLoodHt5zhk6lb1-4" target="QANqejLoodHt5zhk6lb1-6">
          <mxGeometry relative="1" as="geometry">
            <mxPoint x="390" y="540.2352941176471" as="targetPoint" />
          </mxGeometry>
        </mxCell>
        <mxCell id="QANqejLoodHt5zhk6lb1-4" value="jmlBayar &amp;gt; 700000" style="rhombus;whiteSpace=wrap;html=1;" vertex="1" parent="WIyWlLk6GJQsqaUBKTNV-1">
          <mxGeometry x="112.5" y="480" width="135" height="120" as="geometry" />
        </mxCell>
        <mxCell id="QANqejLoodHt5zhk6lb1-12" style="edgeStyle=orthogonalEdgeStyle;rounded=0;orthogonalLoop=1;jettySize=auto;html=1;exitX=0.5;exitY=1;exitDx=0;exitDy=0;entryX=0.5;entryY=0;entryDx=0;entryDy=0;" edge="1" parent="WIyWlLk6GJQsqaUBKTNV-1" source="QANqejLoodHt5zhk6lb1-5" target="QANqejLoodHt5zhk6lb1-7">
          <mxGeometry relative="1" as="geometry" />
        </mxCell>
        <mxCell id="QANqejLoodHt5zhk6lb1-5" value="total = jmlBayar - (jmlBayar * 0.3)" style="rounded=0;whiteSpace=wrap;html=1;" vertex="1" parent="WIyWlLk6GJQsqaUBKTNV-1">
          <mxGeometry x="110" y="680" width="140" height="80" as="geometry" />
        </mxCell>
        <mxCell id="QANqejLoodHt5zhk6lb1-20" style="edgeStyle=orthogonalEdgeStyle;rounded=0;orthogonalLoop=1;jettySize=auto;html=1;exitX=0.5;exitY=1;exitDx=0;exitDy=0;entryX=1;entryY=0.5;entryDx=0;entryDy=0;" edge="1" parent="WIyWlLk6GJQsqaUBKTNV-1" source="QANqejLoodHt5zhk6lb1-6" target="QANqejLoodHt5zhk6lb1-7">
          <mxGeometry relative="1" as="geometry">
            <mxPoint x="390" y="900" as="targetPoint" />
            <Array as="points">
              <mxPoint x="390" y="790" />
              <mxPoint x="391" y="880" />
            </Array>
          </mxGeometry>
        </mxCell>
        <mxCell id="QANqejLoodHt5zhk6lb1-6" value="total = jmlBayar - (jmlBayar * 0.2)" style="rounded=0;whiteSpace=wrap;html=1;" vertex="1" parent="WIyWlLk6GJQsqaUBKTNV-1">
          <mxGeometry x="320" y="600" width="140" height="80" as="geometry" />
        </mxCell>
        <mxCell id="QANqejLoodHt5zhk6lb1-13" style="edgeStyle=orthogonalEdgeStyle;rounded=0;orthogonalLoop=1;jettySize=auto;html=1;exitX=0.5;exitY=1;exitDx=0;exitDy=0;entryX=0.5;entryY=0;entryDx=0;entryDy=0;" edge="1" parent="WIyWlLk6GJQsqaUBKTNV-1" source="QANqejLoodHt5zhk6lb1-7" target="QANqejLoodHt5zhk6lb1-1">
          <mxGeometry relative="1" as="geometry" />
        </mxCell>
        <mxCell id="QANqejLoodHt5zhk6lb1-7" value="total" style="shape=parallelogram;perimeter=parallelogramPerimeter;whiteSpace=wrap;html=1;fixedSize=1;" vertex="1" parent="WIyWlLk6GJQsqaUBKTNV-1">
          <mxGeometry x="120" y="840" width="120" height="80" as="geometry" />
        </mxCell>
        <mxCell id="QANqejLoodHt5zhk6lb1-18" value="&lt;font style=&quot;font-size: 14px;&quot;&gt;&lt;b&gt;T&lt;/b&gt;&lt;/font&gt;" style="text;html=1;align=center;verticalAlign=middle;resizable=0;points=[];autosize=1;strokeColor=none;fillColor=none;" vertex="1" parent="WIyWlLk6GJQsqaUBKTNV-1">
          <mxGeometry x="150" y="625" width="30" height="30" as="geometry" />
        </mxCell>
        <mxCell id="QANqejLoodHt5zhk6lb1-19" value="&lt;font style=&quot;font-size: 14px;&quot;&gt;&lt;b&gt;F&lt;/b&gt;&lt;/font&gt;" style="text;html=1;align=center;verticalAlign=middle;resizable=0;points=[];autosize=1;strokeColor=none;fillColor=none;" vertex="1" parent="WIyWlLk6GJQsqaUBKTNV-1">
          <mxGeometry x="265" y="510" width="30" height="30" as="geometry" />
        </mxCell>
      </root>
    </mxGraphModel>
  </diagram>
</mxfile>
